<?xml version="1.0" encoding="UTF-8" standalone="no"?>
<!DOCTYPE svg PUBLIC "-//W3C//DTD SVG 1.1//EN"
 "http://www.w3.org/Graphics/SVG/1.1/DTD/svg11.dtd">
<!-- Generated by graphviz version 14.1.4 (20260321.0153)
 -->
<!-- Title: shift_left Pages: 1 -->
<svg width="612pt" height="248pt"
 viewBox="0.00 0.00 612.00 248.00" xmlns="http://www.w3.org/2000/svg" xmlns:xlink="http://www.w3.org/1999/xlink">
<g id="graph0" class="graph" transform="scale(1 1) rotate(0) translate(28.8 218.8)">
<title>shift_left</title>
<text xml:space="preserve" text-anchor="start" x="127.5" y="-168" font-family="Helvetica,Arial,sans-serif" font-weight="bold" font-size="20.00" fill="#0f172a">A compiler moves the catch left</text>
<text xml:space="preserve" text-anchor="start" x="63.75" y="-156.55" font-family="Helvetica,Arial,sans-serif" font-size="11.00" fill="#475569">typo · bad reference · invalid enum · semantically&#45;incoherent spec — the same error class</text>
<text xml:space="preserve" text-anchor="start" x="274.5" y="-137" font-family="Helvetica,Arial,sans-serif" font-size="20.00" fill="#0f172a"> </text>
<!-- grid -->
<g id="node1" class="node">
<title>grid</title>
<polygon fill="none" stroke="none" points="0,-84 0,-131 147.75,-131 147.75,-84 0,-84"/>
<polygon fill="none" stroke="#cbd5e1" points="0,-84 0,-131 147.75,-131 147.75,-84 0,-84"/>
<polygon fill="#f1f5f9" stroke="none" points="147.75,-84 147.75,-131 246.75,-131 246.75,-84 147.75,-84"/>
<polygon fill="none" stroke="#cbd5e1" points="147.75,-84 147.75,-131 246.75,-131 246.75,-84 147.75,-84"/>
<text xml:space="preserve" text-anchor="start" x="159.75" y="-106.7" font-family="Helvetica,Arial,sans-serif" font-weight="bold" font-size="14.00">author&#45;time</text>
<text xml:space="preserve" text-anchor="start" x="166.88" y="-97.45" font-family="Helvetica,Arial,sans-serif" font-size="9.00">editor squiggle</text>
<polygon fill="#f1f5f9" stroke="none" points="246.75,-84 246.75,-131 336,-131 336,-84 246.75,-84"/>
<polygon fill="none" stroke="#cbd5e1" points="246.75,-84 246.75,-131 336,-131 336,-84 246.75,-84"/>
<text xml:space="preserve" text-anchor="start" x="258.75" y="-106.7" font-family="Helvetica,Arial,sans-serif" font-weight="bold" font-size="14.00">build&#45;time</text>
<text xml:space="preserve" text-anchor="start" x="277.5" y="-97.45" font-family="Helvetica,Arial,sans-serif" font-size="9.00">CI fails</text>
<polygon fill="#f1f5f9" stroke="none" points="336,-84 336,-131 447.75,-131 447.75,-84 336,-84"/>
<polygon fill="none" stroke="#cbd5e1" points="336,-84 336,-131 447.75,-131 447.75,-84 336,-84"/>
<text xml:space="preserve" text-anchor="start" x="357.75" y="-106.7" font-family="Helvetica,Arial,sans-serif" font-weight="bold" font-size="14.00">apply&#45;time</text>
<text xml:space="preserve" text-anchor="start" x="370.12" y="-97.45" font-family="Helvetica,Arial,sans-serif" font-size="9.00">Flux errors</text>
<polygon fill="#f1f5f9" stroke="none" points="447.75,-84 447.75,-131 554.25,-131 554.25,-84 447.75,-84"/>
<polygon fill="none" stroke="#cbd5e1" points="447.75,-84 447.75,-131 554.25,-131 554.25,-84 447.75,-84"/>
<text xml:space="preserve" text-anchor="start" x="459.75" y="-106.7" font-family="Helvetica,Arial,sans-serif" font-weight="bold" font-size="14.00">ALARM&#45;time</text>
<text xml:space="preserve" text-anchor="start" x="471.75" y="-97.45" font-family="Helvetica,Arial,sans-serif" font-size="9.00">the pager fires</text>
<polygon fill="#dcfce7" stroke="none" points="0,-42 0,-84 147.75,-84 147.75,-42 0,-42"/>
<polygon fill="none" stroke="#cbd5e1" points="0,-42 0,-84 147.75,-84 147.75,-42 0,-42"/>
<text xml:space="preserve" text-anchor="start" x="12" y="-58.2" font-family="Helvetica,Arial,sans-serif" font-weight="bold" font-size="14.00">chant</text>
<polygon fill="#dcfce7" stroke="none" points="147.75,-42 147.75,-84 246.75,-84 246.75,-42 147.75,-42"/>
<polygon fill="none" stroke="#cbd5e1" points="147.75,-42 147.75,-84 246.75,-84 246.75,-42 147.75,-42"/>
<text xml:space="preserve" text-anchor="start" x="168" y="-59.7" font-family="Helvetica,Arial,sans-serif" font-weight="bold" font-size="14.00" fill="#14532d">✓ caught</text>
<polygon fill="#dcfce7" stroke="none" points="246.75,-42 246.75,-84 336,-84 336,-42 246.75,-42"/>
<polygon fill="none" stroke="#cbd5e1" points="246.75,-42 246.75,-84 336,-84 336,-42 246.75,-42"/>
<text xml:space="preserve" text-anchor="start" x="262.12" y="-59.7" font-family="Helvetica,Arial,sans-serif" font-weight="bold" font-size="14.00" fill="#14532d">✓ caught</text>
<polygon fill="none" stroke="none" points="336,-42 336,-84 447.75,-84 447.75,-42 336,-42"/>
<polygon fill="none" stroke="#cbd5e1" points="336,-42 336,-84 447.75,-84 447.75,-42 336,-42"/>
<polygon fill="none" stroke="none" points="447.75,-42 447.75,-84 554.25,-84 554.25,-42 447.75,-42"/>
<polygon fill="none" stroke="#cbd5e1" points="447.75,-42 447.75,-84 554.25,-84 554.25,-42 447.75,-42"/>
<polygon fill="#f3e8ff" stroke="none" points="0,0 0,-42 147.75,-42 147.75,0 0,0"/>
<polygon fill="none" stroke="#cbd5e1" points="0,0 0,-42 147.75,-42 147.75,0 0,0"/>
<text xml:space="preserve" text-anchor="start" x="12" y="-16.2" font-family="Helvetica,Arial,sans-serif" font-weight="bold" font-size="14.00">hand&#45;written YAML</text>
<polygon fill="#f8fafc" stroke="none" points="147.75,0 147.75,-42 246.75,-42 246.75,0 147.75,0"/>
<polygon fill="none" stroke="#cbd5e1" points="147.75,0 147.75,-42 246.75,-42 246.75,0 147.75,0"/>
<text xml:space="preserve" text-anchor="start" x="190.12" y="-17.25" font-family="Helvetica,Arial,sans-serif" font-size="14.00" fill="#94a3b8">—</text>
<polygon fill="#f8fafc" stroke="none" points="246.75,0 246.75,-42 336,-42 336,0 246.75,0"/>
<polygon fill="none" stroke="#cbd5e1" points="246.75,0 246.75,-42 336,-42 336,0 246.75,0"/>
<text xml:space="preserve" text-anchor="start" x="284.25" y="-17.25" font-family="Helvetica,Arial,sans-serif" font-size="14.00" fill="#94a3b8">—</text>
<polygon fill="#fef3c7" stroke="none" points="336,0 336,-42 447.75,-42 447.75,0 336,0"/>
<polygon fill="none" stroke="#cbd5e1" points="336,0 336,-42 447.75,-42 447.75,0 336,0"/>
<text xml:space="preserve" text-anchor="start" x="348" y="-15.75" font-family="Helvetica,Arial,sans-serif" font-size="14.00" fill="#78350f">slips through ▸</text>
<polygon fill="#fee2e2" stroke="none" points="447.75,0 447.75,-42 554.25,-42 554.25,0 447.75,0"/>
<polygon fill="none" stroke="#cbd5e1" points="447.75,0 447.75,-42 554.25,-42 554.25,0 447.75,0"/>
<text xml:space="preserve" text-anchor="start" x="469.12" y="-17.32" font-family="Helvetica,Arial,sans-serif" font-weight="bold" font-size="14.00" fill="#7f1d1d">✗ incident</text>
</g>
</g>
</svg>
