<?xml version="1.0" encoding="UTF-8" standalone="no"?>
<!DOCTYPE svg PUBLIC "-//W3C//DTD SVG 1.1//EN"
 "http://www.w3.org/Graphics/SVG/1.1/DTD/svg11.dtd">
<!-- Generated by graphviz version 14.1.4 (20260321.0153)
 -->
<!-- Title: determinism_ladder Pages: 1 -->
<svg width="635pt" height="444pt"
 viewBox="0.00 0.00 635.00 444.00" xmlns="http://www.w3.org/2000/svg" xmlns:xlink="http://www.w3.org/1999/xlink">
<g id="graph0" class="graph" transform="scale(1 1) rotate(0) translate(36 407.51)">
<title>determinism_ladder</title>
<text xml:space="preserve" text-anchor="start" x="58.62" y="-349.51" font-family="Helvetica,Arial,sans-serif" font-weight="bold" font-size="20.00" fill="#e6edf3">Determinism: by avoidance vs. by enforcement</text>
<text xml:space="preserve" text-anchor="start" x="8" y="-338.06" font-family="Helvetica,Arial,sans-serif" font-size="11.00" fill="#8b949e">Kustomize&#45;over&#45;Helm buys determinism by avoidance. A compiler enforces it — same inputs, same YAML, always.</text>
<text xml:space="preserve" text-anchor="start" x="278.75" y="-318.51" font-family="Helvetica,Arial,sans-serif" font-size="20.00" fill="#0f172a"> </text>
<!-- helm -->
<g id="node1" class="node">
<title>helm</title>
<path fill="#fee2e2" stroke="#dc2626" d="M456.58,-312.51C456.58,-312.51 106.17,-312.51 106.17,-312.51 100.17,-312.51 94.17,-306.51 94.17,-300.51 94.17,-300.51 94.17,-249.84 94.17,-249.84 94.17,-243.84 100.17,-237.84 106.17,-237.84 106.17,-237.84 456.58,-237.84 456.58,-237.84 462.58,-237.84 468.58,-243.84 468.58,-249.84 468.58,-249.84 468.58,-300.51 468.58,-300.51 468.58,-306.51 462.58,-312.51 456.58,-312.51"/>
<text xml:space="preserve" text-anchor="middle" x="281.38" y="-286.25" font-family="Helvetica,Arial,sans-serif" font-size="14.00" fill="#7f1d1d">Helm &#160;&#160;&#160;✗ &#160;non&#45;deterministic</text>
<text xml:space="preserve" text-anchor="middle" x="281.38" y="-269" font-family="Helvetica,Arial,sans-serif" font-size="14.00" fill="#7f1d1d">now() · lookup · randAlphaNum</text>
<text xml:space="preserve" text-anchor="middle" x="281.38" y="-254" font-family="Helvetica,Arial,sans-serif" font-size="14.00" fill="#7f1d1d">same chart → different YAML</text>
</g>
<!-- kust -->
<g id="node2" class="node">
<title>kust</title>
<path fill="#fef3c7" stroke="#d97706" d="M456.58,-190.59C456.58,-190.59 106.17,-190.59 106.17,-190.59 100.17,-190.59 94.17,-184.59 94.17,-178.59 94.17,-178.59 94.17,-130.17 94.17,-130.17 94.17,-124.17 100.17,-118.17 106.17,-118.17 106.17,-118.17 456.58,-118.17 456.58,-118.17 462.58,-118.17 468.58,-124.17 468.58,-130.17 468.58,-130.17 468.58,-178.59 468.58,-178.59 468.58,-184.59 462.58,-190.59 456.58,-190.59"/>
<text xml:space="preserve" text-anchor="middle" x="281.38" y="-164.33" font-family="Helvetica,Arial,sans-serif" font-size="14.00" fill="#78350f">Kustomize &#160;&#160;&#160;◐ &#160;deterministic by AVOIDANCE</text>
<text xml:space="preserve" text-anchor="middle" x="281.38" y="-147.83" font-family="Helvetica,Arial,sans-serif" font-size="14.00" fill="#78350f">no templating — but only if you keep</text>
<text xml:space="preserve" text-anchor="middle" x="281.38" y="-132.83" font-family="Helvetica,Arial,sans-serif" font-size="14.00" fill="#78350f">avoiding Helm, by hand, forever</text>
</g>
<!-- helm&#45;&gt;kust -->
<g id="edge1" class="edge">
<title>helm&#45;&gt;kust</title>
<path fill="none" stroke="#6366f1" stroke-width="1.4" d="M281.38,-237.56C281.38,-226.53 281.38,-214.27 281.38,-202.65"/>
<polygon fill="#6366f1" stroke="#6366f1" stroke-width="1.4" points="284.88,-202.97 281.38,-192.97 277.88,-202.97 284.88,-202.97"/>
<text xml:space="preserve" text-anchor="middle" x="362.75" y="-210.34" font-family="Helvetica,Arial,sans-serif" font-size="10.00" fill="#8b949e">non&#45;determinism — so teams avoid it</text>
</g>
<!-- chant -->
<g id="node3" class="node">
<title>chant</title>
<path fill="#dcfce7" stroke="#16a34a" stroke-width="2.4" d="M456.58,-70.92C456.58,-70.92 106.17,-70.92 106.17,-70.92 100.17,-70.92 94.17,-64.92 94.17,-58.92 94.17,-58.92 94.17,-12 94.17,-12 94.17,-6 100.17,0 106.17,0 106.17,0 456.58,0 456.58,0 462.58,0 468.58,-6 468.58,-12 468.58,-12 468.58,-58.92 468.58,-58.92 468.58,-64.92 462.58,-70.92 456.58,-70.92"/>
<text xml:space="preserve" text-anchor="middle" x="281.38" y="-44.66" font-family="Helvetica,Arial,sans-serif" font-size="14.00" fill="#14532d">chant &#160;&#160;&#160;● &#160;deterministic by ENFORCEMENT</text>
<text xml:space="preserve" text-anchor="middle" x="281.38" y="-29.66" font-family="Helvetica,Arial,sans-serif" font-size="14.00" fill="#14532d">EVL lint rejects now() / lookup / function calls</text>
<text xml:space="preserve" text-anchor="middle" x="281.38" y="-14.66" font-family="Helvetica,Arial,sans-serif" font-size="14.00" fill="#14532d">at build — non&#45;determinism can&#39;t be merged</text>
</g>
<!-- kust&#45;&gt;chant -->
<g id="edge2" class="edge">
<title>kust&#45;&gt;chant</title>
<path fill="none" stroke="#6366f1" stroke-width="1.4" d="M281.38,-117.98C281.38,-107.22 281.38,-95.22 281.38,-83.81"/>
<polygon fill="#6366f1" stroke="#6366f1" stroke-width="1.4" points="284.88,-83.86 281.38,-73.86 277.88,-83.86 284.88,-83.86"/>
<text xml:space="preserve" text-anchor="middle" x="366.88" y="-90.67" font-family="Helvetica,Arial,sans-serif" font-size="10.00" fill="#8b949e">enforce it instead of avoiding it by hand</text>
</g>
</g>
</svg>
