<?xml version="1.0" encoding="UTF-8" standalone="no"?>
<!DOCTYPE svg PUBLIC "-//W3C//DTD SVG 1.1//EN"
 "http://www.w3.org/Graphics/SVG/1.1/DTD/svg11.dtd">
<!-- Generated by graphviz version 14.1.4 (20260321.0153)
 -->
<!-- Title: slots_under Pages: 1 -->
<svg width="630pt" height="661pt"
 viewBox="0.00 0.00 630.00 661.00" xmlns="http://www.w3.org/2000/svg" xmlns:xlink="http://www.w3.org/1999/xlink">
<g id="graph0" class="graph" transform="scale(1 1) rotate(0) translate(36 625.1)">
<title>slots_under</title>
<text xml:space="preserve" text-anchor="start" x="40.25" y="-567.1" font-family="Helvetica,Arial,sans-serif" font-weight="bold" font-size="20.00" fill="#e6edf3">chant slots under your stack — nothing comes out</text>
<text xml:space="preserve" text-anchor="start" x="8" y="-555.65" font-family="Helvetica,Arial,sans-serif" font-size="11.00" fill="#8b949e">Same reconciler. Same native YAML. Walk&#45;away cost is zero — delete chant and the committed YAML still works.</text>
<text xml:space="preserve" text-anchor="start" x="276.5" y="-536.1" font-family="Helvetica,Arial,sans-serif" font-size="20.00" fill="#e6edf3"> </text>
<g id="clust1" class="cluster">
<title>cluster_before</title>
<path fill="none" stroke="#cbd5e1" d="M40.12,-251.3C40.12,-251.3 196.12,-251.3 196.12,-251.3 202.12,-251.3 208.12,-257.3 208.12,-263.3 208.12,-263.3 208.12,-510.1 208.12,-510.1 208.12,-516.1 202.12,-522.1 196.12,-522.1 196.12,-522.1 40.12,-522.1 40.12,-522.1 34.12,-522.1 28.12,-516.1 28.12,-510.1 28.12,-510.1 28.12,-263.3 28.12,-263.3 28.12,-257.3 34.12,-251.3 40.12,-251.3"/>
<text xml:space="preserve" text-anchor="middle" x="118.12" y="-505.75" font-family="Helvetica,Arial,sans-serif" font-size="13.00" fill="#8b949e">BEFORE</text>
</g>
<g id="clust2" class="cluster">
<title>cluster_after</title>
<path fill="none" stroke="#16a34a" d="M228.12,-8C228.12,-8 518.12,-8 518.12,-8 524.12,-8 530.12,-14 530.12,-20 530.12,-20 530.12,-413 530.12,-413 530.12,-419 524.12,-425 518.12,-425 518.12,-425 228.12,-425 228.12,-425 222.12,-425 216.12,-419 216.12,-413 216.12,-413 216.12,-20 216.12,-20 216.12,-14 222.12,-8 228.12,-8"/>
<text xml:space="preserve" text-anchor="middle" x="373.12" y="-408.65" font-family="Helvetica,Arial,sans-serif" font-size="13.00" fill="#16a34a">AFTER &#160;(reconciler untouched)</text>
</g>
<!-- b_src -->
<g id="node1" class="node">
<title>b_src</title>
<path fill="#f1f5f9" stroke="#94a3b8" d="M179.66,-484.6C179.66,-484.6 56.59,-484.6 56.59,-484.6 50.59,-484.6 44.59,-478.6 44.59,-472.6 44.59,-472.6 44.59,-445 44.59,-445 44.59,-439 50.59,-433 56.59,-433 56.59,-433 179.66,-433 179.66,-433 185.66,-433 191.66,-439 191.66,-445 191.66,-445 191.66,-472.6 191.66,-472.6 191.66,-478.6 185.66,-484.6 179.66,-484.6"/>
<text xml:space="preserve" text-anchor="middle" x="118.12" y="-460.5" font-family="Helvetica,Arial,sans-serif" font-size="14.00" fill="#475569">hand&#45;written</text>
<text xml:space="preserve" text-anchor="middle" x="118.12" y="-445.5" font-family="Helvetica,Arial,sans-serif" font-size="14.00" fill="#475569">YAML / Kustomize</text>
</g>
<!-- b_flux -->
<g id="node2" class="node">
<title>b_flux</title>
<path fill="#f3e8ff" stroke="#7c3aed" d="M176.28,-395C176.28,-395 59.97,-395 59.97,-395 53.97,-395 47.97,-389 47.97,-383 47.97,-383 47.97,-355.4 47.97,-355.4 47.97,-349.4 53.97,-343.4 59.97,-343.4 59.97,-343.4 176.28,-343.4 176.28,-343.4 182.28,-343.4 188.28,-349.4 188.28,-355.4 188.28,-355.4 188.28,-383 188.28,-383 188.28,-389 182.28,-395 176.28,-395"/>
<text xml:space="preserve" text-anchor="middle" x="118.12" y="-370.9" font-family="Helvetica,Arial,sans-serif" font-size="14.00" fill="#3b0764">GitOps reconciler</text>
<text xml:space="preserve" text-anchor="middle" x="118.12" y="-355.9" font-family="Helvetica,Arial,sans-serif" font-size="14.00" fill="#3b0764">Flux · Argo</text>
</g>
<!-- b_src&#45;&gt;b_flux -->
<g id="edge1" class="edge">
<title>b_src&#45;&gt;b_flux</title>
<path fill="none" stroke="#6366f1" stroke-width="1.3" d="M118.12,-432.93C118.12,-424.96 118.12,-415.94 118.12,-407.29"/>
<polygon fill="#6366f1" stroke="#6366f1" stroke-width="1.3" points="121.63,-407.4 118.13,-397.4 114.63,-407.4 121.63,-407.4"/>
</g>
<!-- a_src -->
<g id="node4" class="node">
<title>a_src</title>
<path fill="#f1f5f9" stroke="#94a3b8" d="M382.03,-387.5C382.03,-387.5 270.22,-387.5 270.22,-387.5 264.22,-387.5 258.22,-381.5 258.22,-375.5 258.22,-375.5 258.22,-362.9 258.22,-362.9 258.22,-356.9 264.22,-350.9 270.22,-350.9 270.22,-350.9 382.03,-350.9 382.03,-350.9 388.03,-350.9 394.03,-356.9 394.03,-362.9 394.03,-362.9 394.03,-375.5 394.03,-375.5 394.03,-381.5 388.03,-387.5 382.03,-387.5"/>
<text xml:space="preserve" text-anchor="middle" x="326.12" y="-363.4" font-family="Helvetica,Arial,sans-serif" font-size="14.00" fill="#475569">typed TypeScript</text>
</g>
<!-- b_src&#45;&gt;a_src -->
<!-- b_infra -->
<g id="node3" class="node">
<title>b_infra</title>
<path fill="#f1f5f9" stroke="#94a3b8" d="M167.28,-303.9C167.28,-303.9 68.97,-303.9 68.97,-303.9 62.97,-303.9 56.97,-297.9 56.97,-291.9 56.97,-291.9 56.97,-279.3 56.97,-279.3 56.97,-273.3 62.97,-267.3 68.97,-267.3 68.97,-267.3 167.28,-267.3 167.28,-267.3 173.28,-267.3 179.28,-273.3 179.28,-279.3 179.28,-279.3 179.28,-291.9 179.28,-291.9 179.28,-297.9 173.28,-303.9 167.28,-303.9"/>
<text xml:space="preserve" text-anchor="middle" x="118.12" y="-279.8" font-family="Helvetica,Arial,sans-serif" font-size="14.00" fill="#475569">cluster + cloud</text>
</g>
<!-- b_flux&#45;&gt;b_infra -->
<g id="edge2" class="edge">
<title>b_flux&#45;&gt;b_infra</title>
<path fill="none" stroke="#6366f1" stroke-width="1.3" d="M118.12,-343.27C118.12,-334.74 118.12,-325.1 118.12,-316.23"/>
<polygon fill="#6366f1" stroke="#6366f1" stroke-width="1.3" points="121.63,-316.36 118.13,-306.36 114.63,-316.36 121.63,-316.36"/>
</g>
<!-- a_comp -->
<g id="node5" class="node">
<title>a_comp</title>
<path fill="#dcfce7" stroke="#16a34a" stroke-width="2.2" d="M470.16,-311.4C470.16,-311.4 254.09,-311.4 254.09,-311.4 248.09,-311.4 242.09,-305.4 242.09,-299.4 242.09,-299.4 242.09,-271.8 242.09,-271.8 242.09,-265.8 248.09,-259.8 254.09,-259.8 254.09,-259.8 470.16,-259.8 470.16,-259.8 476.16,-259.8 482.16,-265.8 482.16,-271.8 482.16,-271.8 482.16,-299.4 482.16,-299.4 482.16,-305.4 476.16,-311.4 470.16,-311.4"/>
<text xml:space="preserve" text-anchor="middle" x="362.12" y="-287.3" font-family="Helvetica,Arial,sans-serif" font-size="14.00" fill="#14532d">chant build</text>
<text xml:space="preserve" text-anchor="middle" x="362.12" y="-272.3" font-family="Helvetica,Arial,sans-serif" font-size="14.00" fill="#14532d">types · semantic lint · determinism</text>
</g>
<!-- a_src&#45;&gt;a_comp -->
<g id="edge3" class="edge">
<title>a_src&#45;&gt;a_comp</title>
<path fill="none" stroke="#6366f1" stroke-width="1.3" d="M333.94,-350.49C337.47,-342.48 341.79,-332.68 345.98,-323.2"/>
<polygon fill="#6366f1" stroke="#6366f1" stroke-width="1.3" points="349.15,-324.69 349.98,-314.13 342.74,-321.86 349.15,-324.69"/>
</g>
<!-- a_yaml -->
<g id="node6" class="node">
<title>a_yaml</title>
<path fill="#f1f5f9" stroke="#94a3b8" d="M502.53,-227.8C502.53,-227.8 243.72,-227.8 243.72,-227.8 237.72,-227.8 231.72,-221.8 231.72,-215.8 231.72,-215.8 231.72,-188.2 231.72,-188.2 231.72,-182.2 237.72,-176.2 243.72,-176.2 243.72,-176.2 502.53,-176.2 502.53,-176.2 508.53,-176.2 514.53,-182.2 514.53,-188.2 514.53,-188.2 514.53,-215.8 514.53,-215.8 514.53,-221.8 508.53,-227.8 502.53,-227.8"/>
<text xml:space="preserve" text-anchor="middle" x="373.12" y="-203.7" font-family="Helvetica,Arial,sans-serif" font-size="14.00" fill="#475569">dist/*.yaml</text>
<text xml:space="preserve" text-anchor="middle" x="373.12" y="-188.7" font-family="Helvetica,Arial,sans-serif" font-size="14.00" fill="#475569">the same native YAML you commit today</text>
</g>
<!-- a_comp&#45;&gt;a_yaml -->
<g id="edge4" class="edge">
<title>a_comp&#45;&gt;a_yaml</title>
<path fill="none" stroke="#6366f1" stroke-width="1.3" d="M365.61,-258.78C366.43,-252.65 367.33,-246 368.21,-239.5"/>
<polygon fill="#6366f1" stroke="#6366f1" stroke-width="1.3" points="371.61,-240.42 369.48,-230.04 364.67,-239.49 371.61,-240.42"/>
</g>
<!-- a_flux -->
<g id="node7" class="node">
<title>a_flux</title>
<path fill="#f3e8ff" stroke="#7c3aed" d="M474.78,-144.2C474.78,-144.2 271.47,-144.2 271.47,-144.2 265.47,-144.2 259.47,-138.2 259.47,-132.2 259.47,-132.2 259.47,-104.6 259.47,-104.6 259.47,-98.6 265.47,-92.6 271.47,-92.6 271.47,-92.6 474.78,-92.6 474.78,-92.6 480.78,-92.6 486.78,-98.6 486.78,-104.6 486.78,-104.6 486.78,-132.2 486.78,-132.2 486.78,-138.2 480.78,-144.2 474.78,-144.2"/>
<text xml:space="preserve" text-anchor="middle" x="373.12" y="-120.1" font-family="Helvetica,Arial,sans-serif" font-size="14.00" fill="#3b0764">GitOps reconciler &#160;&#160;(unchanged)</text>
<text xml:space="preserve" text-anchor="middle" x="373.12" y="-105.1" font-family="Helvetica,Arial,sans-serif" font-size="14.00" fill="#3b0764">Flux · Argo</text>
</g>
<!-- a_yaml&#45;&gt;a_flux -->
<g id="edge5" class="edge">
<title>a_yaml&#45;&gt;a_flux</title>
<path fill="none" stroke="#6366f1" stroke-width="1.3" d="M373.12,-176.07C373.12,-169.81 373.12,-162.94 373.12,-156.23"/>
<polygon fill="#6366f1" stroke="#6366f1" stroke-width="1.3" points="376.63,-156.42 373.13,-146.42 369.63,-156.42 376.63,-156.42"/>
</g>
<!-- a_infra -->
<g id="node8" class="node">
<title>a_infra</title>
<path fill="#f1f5f9" stroke="#94a3b8" d="M422.28,-60.6C422.28,-60.6 323.97,-60.6 323.97,-60.6 317.97,-60.6 311.97,-54.6 311.97,-48.6 311.97,-48.6 311.97,-36 311.97,-36 311.97,-30 317.97,-24 323.97,-24 323.97,-24 422.28,-24 422.28,-24 428.28,-24 434.28,-30 434.28,-36 434.28,-36 434.28,-48.6 434.28,-48.6 434.28,-54.6 428.28,-60.6 422.28,-60.6"/>
<text xml:space="preserve" text-anchor="middle" x="373.12" y="-36.5" font-family="Helvetica,Arial,sans-serif" font-size="14.00" fill="#475569">cluster + cloud</text>
</g>
<!-- a_flux&#45;&gt;a_infra -->
<g id="edge6" class="edge">
<title>a_flux&#45;&gt;a_infra</title>
<path fill="none" stroke="#6366f1" stroke-width="1.3" d="M373.12,-92.31C373.12,-85.97 373.12,-79.1 373.12,-72.57"/>
<polygon fill="#6366f1" stroke="#6366f1" stroke-width="1.3" points="376.63,-72.62 373.13,-62.62 369.63,-72.62 376.63,-72.62"/>
</g>
</g>
</svg>
