<svg xmlns="http://www.w3.org/2000/svg" viewBox="0 0 900 430" font-family="-apple-system, Segoe UI, Helvetica, Arial, sans-serif">
  <rect x="0.5" y="0.5" width="899" height="429" rx="10" fill="#ffffff" stroke="#e6e6e6"/>
  <text x="40" y="40" font-size="22" font-weight="700" fill="#111">Who covers what</text>
  <text x="40" y="62" font-size="13" fill="#666">Across the capabilities that eliminate bespoke pipelines off-cluster.</text>
  <text x="289" y="100" font-size="11" font-weight="700" fill="#555" text-anchor="middle">Components</text>
  <text x="395" y="100" font-size="11" font-weight="700" fill="#555" text-anchor="middle">Generates CI</text>
  <text x="501" y="100" font-size="11" font-weight="700" fill="#555" text-anchor="middle">Your runner</text>
  <text x="607" y="100" font-size="11" font-weight="700" fill="#555" text-anchor="middle">Any cloud</text>
  <text x="713" y="100" font-size="11" font-weight="700" fill="#555" text-anchor="middle">Cross-stack</text>
  <text x="819" y="100" font-size="11" font-weight="700" fill="#555" text-anchor="middle">Build + publish</text>
  <line x1="40" y1="108" x2="876" y2="108" stroke="#e2e2e2" stroke-width="1"/>
  <rect x="40" y="112" width="836" height="38" fill="#ecf7f0"/>
  <text x="54" y="135" font-size="12.5" font-weight="700" fill="#1a7a45">chant</text>
  <circle cx="289" cy="131" r="6.5" fill="#1a9850"/>
  <circle cx="395" cy="131" r="6.5" fill="#1a9850"/>
  <circle cx="501" cy="131" r="6.5" fill="#1a9850"/>
  <circle cx="607" cy="131" r="6.5" fill="#1a9850"/>
  <circle cx="713" cy="131" r="6.5" fill="#1a9850"/>
  <circle cx="819" cy="131" r="6.5" fill="#1a9850"/>
  <line x1="40" y1="150" x2="876" y2="150" stroke="#efefef" stroke-width="1"/>
  <text x="54" y="173" font-size="12.5" font-weight="400" fill="#333">CDK Pipelines</text>
  <circle cx="289" cy="169" r="6.5" fill="#1a9850"/>
  <circle cx="395" cy="169" r="6.5" fill="#1a9850"/>
  <circle cx="501" cy="169" r="5.5" fill="none" stroke="#d0d0d0" stroke-width="1.6"/>
  <circle cx="607" cy="169" r="5.5" fill="none" stroke="#d0d0d0" stroke-width="1.6"/>
  <circle cx="713" cy="169" r="6.5" fill="#1a9850"/>
  <circle cx="819" cy="169" r="6.5" fill="#1a9850"/>
  <line x1="40" y1="188" x2="876" y2="188" stroke="#efefef" stroke-width="1"/>
  <text x="54" y="211" font-size="12.5" font-weight="400" fill="#333">AWS Copilot</text>
  <circle cx="289" cy="207" r="6.5" fill="#f2e0b6"/><path d="M289,200.5 A6.5,6.5 0 0,0 289,213.5 Z" fill="#c88a1a"/><circle cx="289" cy="207" r="6.5" fill="none" stroke="#c88a1a" stroke-width="1"/>
  <circle cx="395" cy="207" r="6.5" fill="#1a9850"/>
  <circle cx="501" cy="207" r="5.5" fill="none" stroke="#d0d0d0" stroke-width="1.6"/>
  <circle cx="607" cy="207" r="5.5" fill="none" stroke="#d0d0d0" stroke-width="1.6"/>
  <circle cx="713" cy="207" r="6.5" fill="#1a9850"/>
  <circle cx="819" cy="207" r="6.5" fill="#1a9850"/>
  <line x1="40" y1="226" x2="876" y2="226" stroke="#efefef" stroke-width="1"/>
  <text x="54" y="249" font-size="12.5" font-weight="400" fill="#333">Pulumi</text>
  <circle cx="289" cy="245" r="6.5" fill="#1a9850"/>
  <circle cx="395" cy="245" r="5.5" fill="none" stroke="#d0d0d0" stroke-width="1.6"/>
  <circle cx="501" cy="245" r="6.5" fill="#1a9850"/>
  <circle cx="607" cy="245" r="6.5" fill="#1a9850"/>
  <circle cx="713" cy="245" r="6.5" fill="#1a9850"/>
  <circle cx="819" cy="245" r="6.5" fill="#f2e0b6"/><path d="M819,238.5 A6.5,6.5 0 0,0 819,251.5 Z" fill="#c88a1a"/><circle cx="819" cy="245" r="6.5" fill="none" stroke="#c88a1a" stroke-width="1"/>
  <line x1="40" y1="264" x2="876" y2="264" stroke="#efefef" stroke-width="1"/>
  <text x="54" y="287" font-size="12.5" font-weight="400" fill="#333">Terragrunt</text>
  <circle cx="289" cy="283" r="6.5" fill="#f2e0b6"/><path d="M289,276.5 A6.5,6.5 0 0,0 289,289.5 Z" fill="#c88a1a"/><circle cx="289" cy="283" r="6.5" fill="none" stroke="#c88a1a" stroke-width="1"/>
  <circle cx="395" cy="283" r="5.5" fill="none" stroke="#d0d0d0" stroke-width="1.6"/>
  <circle cx="501" cy="283" r="6.5" fill="#1a9850"/>
  <circle cx="607" cy="283" r="6.5" fill="#1a9850"/>
  <circle cx="713" cy="283" r="6.5" fill="#1a9850"/>
  <circle cx="819" cy="283" r="5.5" fill="none" stroke="#d0d0d0" stroke-width="1.6"/>
  <line x1="40" y1="302" x2="876" y2="302" stroke="#efefef" stroke-width="1"/>
  <text x="54" y="325" font-size="12.5" font-weight="400" fill="#333">GitLab / GitHub CI</text>
  <circle cx="289" cy="321" r="5.5" fill="none" stroke="#d0d0d0" stroke-width="1.6"/>
  <circle cx="395" cy="321" r="6.5" fill="#f2e0b6"/><path d="M395,314.5 A6.5,6.5 0 0,0 395,327.5 Z" fill="#c88a1a"/><circle cx="395" cy="321" r="6.5" fill="none" stroke="#c88a1a" stroke-width="1"/>
  <circle cx="501" cy="321" r="6.5" fill="#1a9850"/>
  <circle cx="607" cy="321" r="6.5" fill="#1a9850"/>
  <circle cx="713" cy="321" r="5.5" fill="none" stroke="#d0d0d0" stroke-width="1.6"/>
  <circle cx="819" cy="321" r="6.5" fill="#f2e0b6"/><path d="M819,314.5 A6.5,6.5 0 0,0 819,327.5 Z" fill="#c88a1a"/><circle cx="819" cy="321" r="6.5" fill="none" stroke="#c88a1a" stroke-width="1"/>
  <line x1="40" y1="340" x2="876" y2="340" stroke="#efefef" stroke-width="1"/>
  <text x="54" y="363" font-size="12.5" font-weight="400" fill="#333">Spinnaker / Harness</text>
  <circle cx="289" cy="359" r="6.5" fill="#f2e0b6"/><path d="M289,352.5 A6.5,6.5 0 0,0 289,365.5 Z" fill="#c88a1a"/><circle cx="289" cy="359" r="6.5" fill="none" stroke="#c88a1a" stroke-width="1"/>
  <circle cx="395" cy="359" r="6.5" fill="#1a9850"/>
  <circle cx="501" cy="359" r="5.5" fill="none" stroke="#d0d0d0" stroke-width="1.6"/>
  <circle cx="607" cy="359" r="6.5" fill="#1a9850"/>
  <circle cx="713" cy="359" r="6.5" fill="#f2e0b6"/><path d="M713,352.5 A6.5,6.5 0 0,0 713,365.5 Z" fill="#c88a1a"/><circle cx="713" cy="359" r="6.5" fill="none" stroke="#c88a1a" stroke-width="1"/>
  <circle cx="819" cy="359" r="6.5" fill="#f2e0b6"/><path d="M819,352.5 A6.5,6.5 0 0,0 819,365.5 Z" fill="#c88a1a"/><circle cx="819" cy="359" r="6.5" fill="none" stroke="#c88a1a" stroke-width="1"/>
  <line x1="40" y1="378" x2="876" y2="378" stroke="#efefef" stroke-width="1"/>
  <circle cx="52" cy="406" r="6.5" fill="#1a9850"/><text x="64" y="410" font-size="11" fill="#777">yes</text>  <circle cx="120" cy="406" r="6.5" fill="#f2e0b6"/><path d="M120,399.5 A6.5,6.5 0 0,0 120,412.5 Z" fill="#c88a1a"/><circle cx="120" cy="406" r="6.5" fill="none" stroke="#c88a1a" stroke-width="1"/><text x="132" y="410" font-size="11" fill="#777">partial</text>  <circle cx="205" cy="406" r="5.5" fill="none" stroke="#d0d0d0" stroke-width="1.6"/><text x="217" y="410" font-size="11" fill="#777">no</text>
</svg>
