<svg xmlns="http://www.w3.org/2000/svg" viewBox="0 0 900 470" font-family="-apple-system, Segoe UI, Helvetica, Arial, sans-serif">
  <defs>
    <linearGradient id="pcost" x1="0" y1="0" x2="1" y2="0">
      <stop offset="0" stop-color="#1a9850"/>
      <stop offset="0.5" stop-color="#e0a000"/>
      <stop offset="1" stop-color="#d73027"/>
    </linearGradient>
    <marker id="parrow" markerWidth="10" markerHeight="10" refX="7" refY="3" orient="auto" markerUnits="strokeWidth">
      <path d="M0,0 L7,3 L0,6 Z" fill="#444"/>
    </marker>
  </defs>

  <text x="40" y="42" font-size="22" font-weight="700" fill="#111">Where each policy runs</text>
  <text x="40" y="66" font-size="13" fill="#666">The Terraform pipeline, left to right. Policy that runs earlier is cheaper.</text>

  <!-- platform zone shading + boundary -->
  <rect x="392" y="150" width="466" height="150" fill="#faf3e6"/>
  <line x1="392" y1="150" x2="392" y2="300" stroke="#b07d00" stroke-width="1.5" stroke-dasharray="4 3"/>
  <text x="392" y="143" font-size="11" fill="#8a6200" text-anchor="middle" font-weight="600">HCP + credentials</text>

  <!-- chant lane (far left, offline) -->
  <text x="134" y="167" font-size="12" fill="#1a7a45" font-weight="600" text-anchor="middle">chant policy — typed, offline</text>
  <line x1="70" y1="178" x2="198" y2="178" stroke="#1a9850" stroke-width="4"/>
  <circle cx="70" cy="178" r="5" fill="#1a9850"/><circle cx="198" cy="178" r="5" fill="#1a9850"/>

  <!-- tfpolicy lane (pre-plan → apply, in HCP) -->
  <text x="582" y="202" font-size="12" fill="#b06a00" font-weight="600" text-anchor="middle">tfpolicy — HCL, in HCP</text>
  <line x1="455" y1="213" x2="710" y2="213" stroke="#dd7a1a" stroke-width="4"/>
  <circle cx="455" cy="213" r="5" fill="#dd7a1a"/><circle cx="582" cy="213" r="5" fill="#dd7a1a"/><circle cx="710" cy="213" r="5" fill="#dd7a1a"/>

  <!-- sentinel / opa lane (plan → apply) -->
  <text x="646" y="237" font-size="11.5" fill="#888" text-anchor="middle">Sentinel · OPA — separate language</text>
  <line x1="582" y1="248" x2="710" y2="248" stroke="#999" stroke-width="3"/>
  <circle cx="582" cy="248" r="4.5" fill="#999"/><circle cx="710" cy="248" r="4.5" fill="#999"/>

  <!-- axis -->
  <line x1="70" y1="290" x2="858" y2="290" stroke="url(#pcost)" stroke-width="6" marker-end="url(#parrow)"/>
  <text x="70" y="322" font-size="12" fill="#1a9850" font-weight="600">you author</text>
  <text x="858" y="322" font-size="12" fill="#d73027" font-weight="600" text-anchor="end">incident</text>

  <!-- stations -->
  <g font-size="12" fill="#333" text-anchor="middle">
    <g><circle cx="70"  cy="290" r="5" fill="#1a9850"/><text x="70"  y="356">Editor</text></g>
    <g><circle cx="198" cy="290" r="5" fill="#3aa05a"/><text x="198" y="356">Build</text></g>
    <g><circle cx="326" cy="290" r="5" fill="#8a9a3a"/><text x="326" y="356">Commit / CI</text></g>
    <g><circle cx="455" cy="290" r="5" fill="#e0a000"/><text x="455" y="356">Pre-plan</text></g>
    <g><circle cx="582" cy="290" r="5" fill="#dd7a1a"/><text x="582" y="356">Plan</text></g>
    <g><circle cx="710" cy="290" r="5" fill="#d75030"/><text x="710" y="356">Apply</text></g>
  </g>

  <!-- zone brackets -->
  <path d="M70,378 L326,378 M70,374 L70,382 M326,374 L326,382" stroke="#1a9850" stroke-width="1.5"/>
  <text x="198" y="397" font-size="11.5" fill="#1a7a45" text-anchor="middle">offline — typed, no platform</text>
  <path d="M455,378 L710,378 M455,374 L455,382 M710,374 L710,382" stroke="#b07d00" stroke-width="1.5"/>
  <text x="582" y="397" font-size="11.5" fill="#8a6200" text-anchor="middle">evaluated in HCP</text>

  <!-- footnote -->
  <text x="40" y="440" font-size="11" fill="#888">tfpolicy reaches earlier (pre-plan) and later (apply) than Sentinel — but never left of the platform.</text>
</svg>
