<svg xmlns="http://www.w3.org/2000/svg" viewBox="0 0 680 356" style="max-width:660px;display:block;margin:0 auto" font-family="-apple-system, Segoe UI, Helvetica, Arial, sans-serif">
  <rect x="0" y="0" width="680" height="356" fill="#0d1117"/>
  <line x1="40" y1="300" x2="640" y2="300" stroke="#30363d" stroke-width="1.5"/>
  <!-- the pillar: twelve courses of brick to hold one ball -->
  <rect x="112.0" y="134.0" width="29.0" height="13.8" fill="#2b1917" stroke="#c9685f" stroke-width="1"/>
  <rect x="141.0" y="134.0" width="29.0" height="13.8" fill="#2b1917" stroke="#c9685f" stroke-width="1"/>
  <rect x="170.0" y="134.0" width="29.0" height="13.8" fill="#2b1917" stroke="#c9685f" stroke-width="1"/>
  <rect x="199.0" y="134.0" width="29.0" height="13.8" fill="#2b1917" stroke="#c9685f" stroke-width="1"/>
  <rect x="112.0" y="147.8" width="14.5" height="13.8" fill="#2b1917" stroke="#c9685f" stroke-width="1"/>
  <rect x="126.5" y="147.8" width="29.0" height="13.8" fill="#2b1917" stroke="#c9685f" stroke-width="1"/>
  <rect x="155.5" y="147.8" width="29.0" height="13.8" fill="#2b1917" stroke="#c9685f" stroke-width="1"/>
  <rect x="184.5" y="147.8" width="29.0" height="13.8" fill="#2b1917" stroke="#c9685f" stroke-width="1"/>
  <rect x="213.5" y="147.8" width="14.5" height="13.8" fill="#2b1917" stroke="#c9685f" stroke-width="1"/>
  <rect x="112.0" y="161.7" width="29.0" height="13.8" fill="#2b1917" stroke="#c9685f" stroke-width="1"/>
  <rect x="141.0" y="161.7" width="29.0" height="13.8" fill="#2b1917" stroke="#c9685f" stroke-width="1"/>
  <rect x="170.0" y="161.7" width="29.0" height="13.8" fill="#2b1917" stroke="#c9685f" stroke-width="1"/>
  <rect x="199.0" y="161.7" width="29.0" height="13.8" fill="#2b1917" stroke="#c9685f" stroke-width="1"/>
  <rect x="112.0" y="175.5" width="14.5" height="13.8" fill="#2b1917" stroke="#c9685f" stroke-width="1"/>
  <rect x="126.5" y="175.5" width="29.0" height="13.8" fill="#2b1917" stroke="#c9685f" stroke-width="1"/>
  <rect x="155.5" y="175.5" width="29.0" height="13.8" fill="#2b1917" stroke="#c9685f" stroke-width="1"/>
  <rect x="184.5" y="175.5" width="29.0" height="13.8" fill="#2b1917" stroke="#c9685f" stroke-width="1"/>
  <rect x="213.5" y="175.5" width="14.5" height="13.8" fill="#2b1917" stroke="#c9685f" stroke-width="1"/>
  <rect x="112.0" y="189.3" width="29.0" height="13.8" fill="#2b1917" stroke="#c9685f" stroke-width="1"/>
  <rect x="141.0" y="189.3" width="29.0" height="13.8" fill="#2b1917" stroke="#c9685f" stroke-width="1"/>
  <rect x="170.0" y="189.3" width="29.0" height="13.8" fill="#2b1917" stroke="#c9685f" stroke-width="1"/>
  <rect x="199.0" y="189.3" width="29.0" height="13.8" fill="#2b1917" stroke="#c9685f" stroke-width="1"/>
  <rect x="112.0" y="203.2" width="14.5" height="13.8" fill="#2b1917" stroke="#c9685f" stroke-width="1"/>
  <rect x="126.5" y="203.2" width="29.0" height="13.8" fill="#2b1917" stroke="#c9685f" stroke-width="1"/>
  <rect x="155.5" y="203.2" width="29.0" height="13.8" fill="#2b1917" stroke="#c9685f" stroke-width="1"/>
  <rect x="184.5" y="203.2" width="29.0" height="13.8" fill="#2b1917" stroke="#c9685f" stroke-width="1"/>
  <rect x="213.5" y="203.2" width="14.5" height="13.8" fill="#2b1917" stroke="#c9685f" stroke-width="1"/>
  <rect x="112.0" y="217.0" width="29.0" height="13.8" fill="#2b1917" stroke="#c9685f" stroke-width="1"/>
  <rect x="141.0" y="217.0" width="29.0" height="13.8" fill="#2b1917" stroke="#c9685f" stroke-width="1"/>
  <rect x="170.0" y="217.0" width="29.0" height="13.8" fill="#2b1917" stroke="#c9685f" stroke-width="1"/>
  <rect x="199.0" y="217.0" width="29.0" height="13.8" fill="#2b1917" stroke="#c9685f" stroke-width="1"/>
  <rect x="112.0" y="230.8" width="14.5" height="13.8" fill="#2b1917" stroke="#c9685f" stroke-width="1"/>
  <rect x="126.5" y="230.8" width="29.0" height="13.8" fill="#2b1917" stroke="#c9685f" stroke-width="1"/>
  <rect x="155.5" y="230.8" width="29.0" height="13.8" fill="#2b1917" stroke="#c9685f" stroke-width="1"/>
  <rect x="184.5" y="230.8" width="29.0" height="13.8" fill="#2b1917" stroke="#c9685f" stroke-width="1"/>
  <rect x="213.5" y="230.8" width="14.5" height="13.8" fill="#2b1917" stroke="#c9685f" stroke-width="1"/>
  <rect x="112.0" y="244.7" width="29.0" height="13.8" fill="#2b1917" stroke="#c9685f" stroke-width="1"/>
  <rect x="141.0" y="244.7" width="29.0" height="13.8" fill="#2b1917" stroke="#c9685f" stroke-width="1"/>
  <rect x="170.0" y="244.7" width="29.0" height="13.8" fill="#2b1917" stroke="#c9685f" stroke-width="1"/>
  <rect x="199.0" y="244.7" width="29.0" height="13.8" fill="#2b1917" stroke="#c9685f" stroke-width="1"/>
  <rect x="112.0" y="258.5" width="14.5" height="13.8" fill="#2b1917" stroke="#c9685f" stroke-width="1"/>
  <rect x="126.5" y="258.5" width="29.0" height="13.8" fill="#2b1917" stroke="#c9685f" stroke-width="1"/>
  <rect x="155.5" y="258.5" width="29.0" height="13.8" fill="#2b1917" stroke="#c9685f" stroke-width="1"/>
  <rect x="184.5" y="258.5" width="29.0" height="13.8" fill="#2b1917" stroke="#c9685f" stroke-width="1"/>
  <rect x="213.5" y="258.5" width="14.5" height="13.8" fill="#2b1917" stroke="#c9685f" stroke-width="1"/>
  <rect x="112.0" y="272.3" width="29.0" height="13.8" fill="#2b1917" stroke="#c9685f" stroke-width="1"/>
  <rect x="141.0" y="272.3" width="29.0" height="13.8" fill="#2b1917" stroke="#c9685f" stroke-width="1"/>
  <rect x="170.0" y="272.3" width="29.0" height="13.8" fill="#2b1917" stroke="#c9685f" stroke-width="1"/>
  <rect x="199.0" y="272.3" width="29.0" height="13.8" fill="#2b1917" stroke="#c9685f" stroke-width="1"/>
  <rect x="112.0" y="286.2" width="14.5" height="13.8" fill="#2b1917" stroke="#c9685f" stroke-width="1"/>
  <rect x="126.5" y="286.2" width="29.0" height="13.8" fill="#2b1917" stroke="#c9685f" stroke-width="1"/>
  <rect x="155.5" y="286.2" width="29.0" height="13.8" fill="#2b1917" stroke="#c9685f" stroke-width="1"/>
  <rect x="184.5" y="286.2" width="29.0" height="13.8" fill="#2b1917" stroke="#c9685f" stroke-width="1"/>
  <rect x="213.5" y="286.2" width="14.5" height="13.8" fill="#2b1917" stroke="#c9685f" stroke-width="1"/>
  <rect x="70" y="286" width="29" height="13.8" fill="#2b1917" stroke="#c9685f" stroke-width="1" transform="rotate(-8 84 293)"/>
  <rect x="84" y="272" width="29" height="13.8" fill="#2b1917" stroke="#c9685f" stroke-width="1" transform="rotate(14 98 279)"/>
  <rect x="236" y="286" width="29" height="13.8" fill="#2b1917" stroke="#c9685f" stroke-width="1" transform="rotate(6 250 293)"/>
  <rect x="252" y="273" width="29" height="13.8" fill="#2b1917" stroke="#c9685f" stroke-width="1" transform="rotate(-17 266 280)"/>
  <rect x="262" y="287" width="29" height="13.8" fill="#2b1917" stroke="#c9685f" stroke-width="1" transform="rotate(3 276 294)"/>
  <!-- the jet: same ball, same height, almost nothing under it -->
  <ellipse cx="510" cy="300" rx="46" ry="6" fill="#0f1c2b" stroke="#30363d"/>
  <rect x="503" y="288" width="14" height="12" rx="2" fill="#161b22" stroke="#8b949e"/>
  <path d="M506.5,288 C507.5,240 508,180 508.5,136 L511.5,136 C512,180 512.5,240 513.5,288 Z" fill="#79c0ff" opacity="0.9"/>
  <path d="M508,140 Q476,130 470,192" fill="none" stroke="#79c0ff" stroke-width="1.4" opacity="0.55"/>
  <path d="M512,140 Q544,130 550,192" fill="none" stroke="#79c0ff" stroke-width="1.4" opacity="0.55"/>
  <circle cx="468" cy="208" r="2.2" fill="#79c0ff" opacity="0.6"/>
  <circle cx="466" cy="230" r="1.8" fill="#79c0ff" opacity="0.45"/>
  <circle cx="553" cy="212" r="2.2" fill="#79c0ff" opacity="0.6"/>
  <circle cx="555" cy="236" r="1.8" fill="#79c0ff" opacity="0.45"/>
  <circle cx="472" cy="254" r="1.5" fill="#79c0ff" opacity="0.3"/>
  <circle cx="550" cy="260" r="1.5" fill="#79c0ff" opacity="0.3"/>
  <circle cx="170" cy="112" r="22" fill="#7ee787"/>
  <circle cx="163" cy="104" r="5" fill="#ffffff" opacity="0.25"/>
  <text x="170" y="76" font-size="11" fill="#c9d1d9" text-anchor="middle">your apply, waiting</text>
  <circle cx="510" cy="112" r="22" fill="#7ee787"/>
  <circle cx="503" cy="104" r="5" fill="#ffffff" opacity="0.25"/>
  <text x="510" y="76" font-size="11" fill="#c9d1d9" text-anchor="middle">your apply, waiting</text>
  <rect x="262" y="150" width="66" height="28" rx="4" fill="#161b22" stroke="#ff7b72"/>
  <circle cx="274" cy="164" r="3" fill="#ff7b72"/>
  <text x="320" y="169" font-family="ui-monospace, SFMono-Regular, Menlo, Consolas, monospace" font-size="12.5" fill="#ff7b72" text-anchor="end">$ 427</text>
  <rect x="572" y="150" width="66" height="28" rx="4" fill="#161b22" stroke="#30363d"/>
  <circle cx="584" cy="164" r="3" fill="#484f58"/>
  <text x="630" y="169" font-family="ui-monospace, SFMono-Regular, Menlo, Consolas, monospace" font-size="12.5" fill="#8b949e" text-anchor="end">$ 0</text>
  <text x="170" y="334" font-size="12.5" font-weight="700" fill="#8b949e" text-anchor="middle">Temporal</text>
  <text x="510" y="334" font-size="12.5" font-weight="700" fill="#7ee787" text-anchor="middle">fountain</text>
</svg>
